<svg xmlns="http://www.w3.org/2000/svg" viewBox="0 0 32 32" width="32" height="32">
  <defs>
    <!-- 그라데이션 정의 -->
    <linearGradient id="bgGradient" x1="0%" y1="0%" x2="100%" y2="100%">
      <stop offset="0%" style="stop-color:#3B82F6;stop-opacity:1" />
      <stop offset="50%" style="stop-color:#8B5CF6;stop-opacity:1" />
      <stop offset="100%" style="stop-color:#EC4899;stop-opacity:1" />
    </linearGradient>
    
    <linearGradient id="lightningGradient" x1="0%" y1="0%" x2="100%" y2="100%">
      <stop offset="0%" style="stop-color:#FEF3C7;stop-opacity:1" />
      <stop offset="100%" style="stop-color:#FCD34D;stop-opacity:1" />
    </linearGradient>
    
    <linearGradient id="brainGradient" x1="0%" y1="0%" x2="100%" y2="100%">
      <stop offset="0%" style="stop-color:#FFFFFF;stop-opacity:0.9" />
      <stop offset="100%" style="stop-color:#F3F4F6;stop-opacity:0.8" />
    </linearGradient>
    
    <!-- 그림자 필터 -->
    <filter id="shadow" x="-50%" y="-50%" width="200%" height="200%">
      <feDropShadow dx="0" dy="2" stdDeviation="2" flood-color="#000000" flood-opacity="0.3"/>
    </filter>
  </defs>
  
  <!-- 배경 원형 -->
  <circle cx="16" cy="16" r="14" fill="url(#bgGradient)" filter="url(#shadow)"/>
  
  <!-- 뇌/AI 심볼 (상단) -->
  <path d="M10 8 C10 6, 12 6, 14 7 C16 6, 18 6, 20 7 C22 8, 22 10, 21 11 C22 12, 21 14, 19 14 C17 15, 15 15, 13 14 C11 14, 10 12, 11 11 C10 10, 10 8, 10 8 Z" 
        fill="url(#brainGradient)" 
        stroke="#FFFFFF" 
        stroke-width="0.5"/>
  
  <!-- 뇌 내부 회로 패턴 -->
  <circle cx="13" cy="10" r="1" fill="#3B82F6" opacity="0.6"/>
  <circle cx="17" cy="10" r="1" fill="#8B5CF6" opacity="0.6"/>
  <path d="M13 10 L17 10" stroke="#3B82F6" stroke-width="0.5" opacity="0.4"/>
  
  <!-- 번개/최적화 심볼 (하단) -->
  <path d="M18 16 L14 20 L16 20 L13 26 L17 22 L15 22 L18 16 Z" 
        fill="url(#lightningGradient)" 
        stroke="#F59E0B" 
        stroke-width="0.3"/>
  
  <!-- 5W1H 도트들 (측면) -->
  <circle cx="6" cy="16" r="1" fill="#FFFFFF" opacity="0.8"/>
  <circle cx="26" cy="16" r="1" fill="#FFFFFF" opacity="0.8"/>
  <circle cx="16" cy="6" r="1" fill="#FFFFFF" opacity="0.6"/>
  <circle cx="16" cy="26" r="1" fill="#FFFFFF" opacity="0.6"/>
  
  <!-- 연결선들 -->
  <path d="M7 16 L11 12" stroke="#FFFFFF" stroke-width="0.5" opacity="0.3"/>
  <path d="M25 16 L21 12" stroke="#FFFFFF" stroke-width="0.5" opacity="0.3"/>
  
  <!-- 중앙 하이라이트 -->
  <circle cx="16" cy="16" r="2" fill="none" stroke="#FFFFFF" stroke-width="0.5" opacity="0.4"/>
</svg> 