<svg xmlns="http://www.w3.org/2000/svg" viewBox="0 0 16 16" width="16" height="16">
  <defs>
    <linearGradient id="bg" x1="0%" y1="0%" x2="100%" y2="100%">
      <stop offset="0%" style="stop-color:#3B82F6"/>
      <stop offset="100%" style="stop-color:#8B5CF6"/>
    </linearGradient>
  </defs>
  
  <!-- 배경 -->
  <rect width="16" height="16" rx="3" fill="url(#bg)"/>
  
  <!-- 뇌 심볼 (단순화) -->
  <path d="M4 4 C4 3, 5 3, 6 3.5 C7 3, 8 3, 9 3.5 C10 4, 10 5, 9.5 5.5 C10 6, 9.5 7, 8.5 7 C7.5 7.5, 6.5 7.5, 5.5 7 C4.5 7, 4 6, 4.5 5.5 C4 5, 4 4, 4 4 Z" 
        fill="#FFFFFF" opacity="0.9"/>
  
  <!-- 번개 심볼 -->
  <path d="M9 8 L7 10 L8 10 L6 13 L8 11 L7 11 L9 8 Z" 
        fill="#FCD34D"/>
  
  <!-- 중앙 도트 -->
  <circle cx="8" cy="8" r="0.5" fill="#FFFFFF" opacity="0.6"/>
</svg> 